<?xml version="1.0" encoding="UTF-8"?>
<svg id="Layer_1" data-name="Layer 1" xmlns="http://www.w3.org/2000/svg" viewBox="0 0 792 612">
  <defs>
    <style>
      .cls-1 {
        fill: #003764;
      }

      .cls-1, .cls-2, .cls-3, .cls-4, .cls-5 {
        stroke-width: 0px;
      }

      .cls-2 {
        fill: #f7941d;
      }

      .cls-3 {
        fill: #f6b015;
      }

      .cls-4 {
        fill: #0068c7;
      }

      .cls-5 {
        fill: #f1f2f2;
      }
    </style>
  </defs>
  <polygon class="cls-4" points="256.97 179.58 216.23 409.49 282.82 409.49 323.64 179.58 256.97 179.58"/>
  <path class="cls-2" d="M208.76,383.51l-66.06,20.96c-1.29.41-2.05,1.76-1.72,3.07h0c.29,1.15,1.32,1.95,2.5,1.95h62.35c1.25,0,2.32-.9,2.53-2.13l3.71-20.96c.34-1.91-1.47-3.49-3.31-2.9Z"/>
  <polygon class="cls-1" points="351.23 409.49 360.61 409.49 390.28 241.19 380.9 241.19 351.23 409.49"/>
  <polygon class="cls-1" points="479.93 409.49 489.31 409.49 518.98 241.19 509.6 241.19 479.93 409.49"/>
  <polygon class="cls-1" points="586.89 341.21 582.03 368.79 604.93 462.92 615.86 462.92 586.89 341.21"/>
  <polygon class="cls-1" points="645.39 179.43 633.68 179.43 609 216.31 605.03 238.87 605.62 238.87 645.39 179.43"/>
  <polygon class="cls-4" points="542.95 179.58 337.49 179.58 327.82 233.06 401.04 233.06 369.94 409.44 430.33 409.44 461.43 233.06 517.29 233.06 542.95 179.58"/>
  <path class="cls-3" d="M204.5,272.38l85.34,58.81c18.7,13.38,26.18,37.57,18.3,59.17l-2.75,7.54-90.39-62.96c-45.4-38.17-10.5-62.56-10.5-62.56Z"/>
  <polygon class="cls-4" points="722.23 179.42 655.03 179.42 600.55 260.85 592.64 260.85 606.97 179.58 555.31 179.58 529.77 232.81 498.61 409.49 566.43 409.49 582.54 318.12 590.1 318.12 625.33 462.92 692.53 462.92 650.11 287.22 722.23 179.42"/>
  <path class="cls-2" d="M70.98,199.67l12.24-.72-7.41,7.1c-.82.79-.67.97.34.45,6.32-3.25,26.13-13.18,26.13-13.18-8.49.13-20.69,1.23-31.47,5.65-1.06.43-.97.77.16.7Z"/>
  <path class="cls-3" d="M307.41,234.1l-63.81-44.2s-24.38-18.53-48.1-26.93c-.01,0-19.12-8.14-19.12-8.14h0c-9.72-5.76-28.01.72-40.94,6.14,0,0-34.29,14.22-34.29,14.22-5.25,3.14-8.38,8.88-8.16,15,0,.05,0,.1,0,.15.29,6.65,5.45,12.07,12.03,13.06l59.41,3.67c7.69.19,14.21-.35,20.33-3.92h0s10.29,1.21,31.46,17.17h0s106.64,80.43,106.64,80.43c.04.03.1.01.12-.04l2.72-7.44c7.39-24.65.4-45.79-18.3-59.17Z"/>
  <path class="cls-2" d="M318.48,286.59l-100.97-77.16h0c-21.17-15.97-31.46-17.17-31.46-17.17-6.12,3.58-12.51,4.1-20.33,3.92l-59.41-3.67c-5.64-.84-10.22-4.95-11.61-10.29-1.2,2.44-1.82,5.18-1.71,7.99,0,.05,0,.1,0,.15.28,6.44,5.14,11.74,11.42,12.95.4.08.81.12,1.22.14l58.8,3.63c7.46.21,14.21-.35,20.33-3.92,0,0,10.29,1.21,31.46,17.17h0s96.64,73.06,96.64,73.06l-3.27,18.4c5.72-1.7,11.38-6.07,13.31-10.8,0,0,.02-.04.05-.13,1.71-5.22-.12-10.94-4.49-14.28Z"/>
  <path class="cls-5" d="M132.82,176.53s5.73-5.41,9.96-6.02,7.92.74,8.24,2.99c.32,2.26-3.4,2.65-7.63,3.26-4.24.61-10.57-.23-10.57-.23Z"/>
  <path class="cls-2" d="M300.96,383.88l-79.52-55.39c-10.94-9.2-17.21-17.59-20.44-25.04-1.86-6.14-1.65-15.27,8.02-25.99.81-.79,1.67-.81,3.57.5h0s15.87,10.93,15.87,10.93l3.57-20.15-14.29-.12c-8.42,0-13.24,3.76-13.24,3.76,0,0-34.9,24.39,10.5,62.56l78.95,55c.81.56,1.21,1.54,1.04,2.51l-2.86,16.12c5.72-1.7,11.44-5.71,13.25-10.67,1.88-5.13.06-10.89-4.42-14.01Z"/>
  <path class="cls-1" d="M385.02,502.26l1.03-5.85h-.18c-3.67,4.5-9.99,7.11-15.93,7.11-13.5,0-19.34-11.34-17.13-23.86s12.24-23.5,25.3-23.5c6.57,0,10.62,3.06,12.62,6.03h.18l4.95-28h14.75l-12,68.06h-13.59ZM379.67,468.23c-7.02,0-11.62,5.67-12.64,11.43-1.03,5.85,1.55,11.61,8.57,11.61s11.8-5.67,12.83-11.52c1-5.67-2.11-11.52-8.77-11.52Z"/>
  <path class="cls-1" d="M510.84,523.86c-7.83,0-16.57-2.52-21.81-7.02l9.24-10.53c3.65,3.78,8.81,5.67,13.85,5.67,8.64,0,13.58-5.04,14.9-12.51l.48-2.7h-.27c-3.43,3.6-8.7,5.94-14.64,5.94-13.59,0-19.55-10.62-17.36-23.05,2.19-12.42,11.97-23.5,25.48-23.5,5.58,0,10.77,2.25,13.08,7.02h.18l1.02-5.76h13.95l-7.16,40.6c-3.1,17.55-15,25.84-30.93,25.84ZM522.09,468.23c-6.66,0-11.44,5.13-12.53,11.34-1.05,5.94,1.85,11.43,8.52,11.43s11.83-5.31,12.91-11.43c1.08-6.12-2.23-11.34-8.89-11.34Z"/>
  <path class="cls-1" d="M490.15,483.89h-32.5c-.42,4.95,3.91,8.46,9.22,8.46,4.68,0,8.27-1.98,10.73-4.68l9.12,6.48c-5.31,6.12-12.94,9.54-22.03,9.54-13.5,0-23.16-8.55-20.49-23.68,2.59-14.67,14.86-24.04,28.45-24.04s20.9,9.09,18.2,24.4c-.21,1.17-.43,2.43-.71,3.51ZM478.27,474.71c.83-4.68-1.46-8.55-7.31-8.55s-10.51,3.96-11.68,8.55h18.99Z"/>
  <path class="cls-1" d="M415.01,457.09h14l-1,7.3h.2c3.8-5.5,8.1-8.4,14.2-8.4,1.6,0,3.3.1,4.6.5l-1.8,12.7c-1.9-.6-3.8-.9-5.9-.9-10.6,0-14.43,6.1-15.73,15.2l-2.7,18.9h-14l8.13-45.3Z"/>
</svg>